<?xml version="1.0"?>
<svg xmlns="http://www.w3.org/2000/svg" viewBox="0 0 16 16">
    <path style="line-height:normal;text-indent:0;text-align:start;text-decoration-line:none;text-decoration-style:solid;text-decoration-color:#000;text-transform:none;block-progression:tb;isolation:auto;mix-blend-mode:normal" d="M 2.5 2 C 1.6774686 2 1 2.6774686 1 3.5 L 1 10.5 C 1 11.322531 1.6774686 12 2.5 12 L 3 12 L 3 12.5 C 3 13.322531 3.6774686 14 4.5 14 L 13.5 14 C 14.322531 14 15 13.322531 15 12.5 L 15 5.5 C 15 4.6774686 14.322531 4 13.5 4 L 13 4 L 13 3.5 C 13 2.6774686 12.322531 2 11.5 2 L 2.5 2 z M 2.5 3 L 11.5 3 C 11.781469 3 12 3.2185314 12 3.5 L 12 8.7675781 L 9.4882812 6.0273438 L 7.5136719 8.3261719 L 4.4882812 5.0273438 L 2 7.9238281 L 2 3.5 C 2 3.2185314 2.2185314 3 2.5 3 z M 9.5 4 A 0.5 0.5 0 0 0 9 4.5 A 0.5 0.5 0 0 0 9.5 5 A 0.5 0.5 0 0 0 10 4.5 A 0.5 0.5 0 0 0 9.5 4 z M 13 5 L 13.5 5 C 13.781469 5 14 5.2185314 14 5.5 L 14 12.5 C 14 12.781469 13.781469 13 13.5 13 L 4.5 13 C 4.2185314 13 4 12.781469 4 12.5 L 4 12 L 11.5 12 C 12.322531 12 13 11.322531 13 10.5 L 13 5 z M 4.5117188 6.5351562 L 8.6054688 11 L 2.5 11 C 2.2185314 11 2 10.781469 2 10.5 L 2 9.4589844 L 4.5117188 6.5351562 z M 9.5117188 7.5351562 L 12 10.25 L 12 10.5 C 12 10.781469 11.781469 11 11.5 11 L 9.9628906 11 L 8.1933594 9.0683594 L 9.5117188 7.5351562 z" font-weight="400" font-family="sans-serif" white-space="normal" overflow="visible"/>
</svg>
